<mxfile modified="2024-03-21T12:19:14.605Z" host="app.diagrams.net" agent="Mozilla/5.0 (Windows NT 10.0; Win64; x64) AppleWebKit/537.36 (KHTML, like Gecko) Chrome/122.0.0.0 Safari/537.36" etag="baEsTUYvDtqXCtHPWbF3" version="23.1.7" type="github">
  <diagram id="WI9T0HZ2pTsCkuznbFz-" name="Page-1">
    <mxGraphModel dx="2074" dy="738" grid="1" gridSize="10" guides="1" tooltips="1" connect="1" arrows="1" fold="1" page="1" pageScale="1" pageWidth="1169" pageHeight="827" math="0" shadow="0">
      <root>
        <mxCell id="0" />
        <mxCell id="1" parent="0" />
        <mxCell id="Jm16vt3uHQaVUnIaKJza-1" value="payment ms" style="shape=image;html=1;verticalAlign=top;verticalLabelPosition=bottom;labelBackgroundColor=#ffffff;imageAspect=0;aspect=fixed;image=https://cdn2.iconfinder.com/data/icons/boxicons-logos/24/bxl-spring-boot-128.png" vertex="1" parent="1">
          <mxGeometry x="270" y="120" width="50" height="50" as="geometry" />
        </mxCell>
        <mxCell id="Jm16vt3uHQaVUnIaKJza-2" value="monitor ms&lt;div&gt;&lt;br/&gt;&lt;/div&gt;" style="shape=image;html=1;verticalAlign=top;verticalLabelPosition=bottom;labelBackgroundColor=#ffffff;imageAspect=0;aspect=fixed;image=https://cdn2.iconfinder.com/data/icons/boxicons-logos/24/bxl-spring-boot-128.png" vertex="1" parent="1">
          <mxGeometry x="880" y="120" width="48" height="48" as="geometry" />
        </mxCell>
        <mxCell id="Jm16vt3uHQaVUnIaKJza-4" value="service bus azure" style="image;sketch=0;aspect=fixed;html=1;points=[];align=center;fontSize=12;image=img/lib/mscae/Service_Bus.svg;" vertex="1" parent="1">
          <mxGeometry x="585" y="120" width="50" height="50" as="geometry" />
        </mxCell>
        <mxCell id="Jm16vt3uHQaVUnIaKJza-6" style="edgeStyle=orthogonalEdgeStyle;rounded=0;orthogonalLoop=1;jettySize=auto;html=1;entryX=0.04;entryY=0.52;entryDx=0;entryDy=0;entryPerimeter=0;exitX=1;exitY=0.5;exitDx=0;exitDy=0;" edge="1" parent="1" source="Jm16vt3uHQaVUnIaKJza-1" target="Jm16vt3uHQaVUnIaKJza-4">
          <mxGeometry relative="1" as="geometry">
            <mxPoint x="480" y="390" as="sourcePoint" />
            <mxPoint x="546" y="145" as="targetPoint" />
            <Array as="points">
              <mxPoint x="320" y="146" />
            </Array>
          </mxGeometry>
        </mxCell>
        <mxCell id="Jm16vt3uHQaVUnIaKJza-7" value="publicar en topico {}" style="edgeLabel;html=1;align=center;verticalAlign=middle;resizable=0;points=[];" vertex="1" connectable="0" parent="Jm16vt3uHQaVUnIaKJza-6">
          <mxGeometry x="-0.0153" relative="1" as="geometry">
            <mxPoint as="offset" />
          </mxGeometry>
        </mxCell>
        <mxCell id="Jm16vt3uHQaVUnIaKJza-12" style="edgeStyle=orthogonalEdgeStyle;rounded=0;orthogonalLoop=1;jettySize=auto;html=1;entryX=1.1;entryY=0.48;entryDx=0;entryDy=0;entryPerimeter=0;" edge="1" parent="1" source="Jm16vt3uHQaVUnIaKJza-2" target="Jm16vt3uHQaVUnIaKJza-4">
          <mxGeometry relative="1" as="geometry" />
        </mxCell>
        <mxCell id="Jm16vt3uHQaVUnIaKJza-13" value="consumir topico {}" style="edgeLabel;html=1;align=center;verticalAlign=middle;resizable=0;points=[];" vertex="1" connectable="0" parent="Jm16vt3uHQaVUnIaKJza-12">
          <mxGeometry x="-0.075" y="-4" relative="1" as="geometry">
            <mxPoint as="offset" />
          </mxGeometry>
        </mxCell>
        <mxCell id="Jm16vt3uHQaVUnIaKJza-14" value="apis monitor" style="html=1;whiteSpace=wrap;strokeColor=none;fillColor=#0079D6;labelPosition=center;verticalLabelPosition=middle;verticalAlign=top;align=center;fontSize=12;outlineConnect=0;spacingTop=-6;fontColor=#FFFFFF;sketch=0;shape=mxgraph.sitemap.cloud;" vertex="1" parent="1">
          <mxGeometry x="1120" y="109" width="120" height="70" as="geometry" />
        </mxCell>
        <mxCell id="Jm16vt3uHQaVUnIaKJza-16" style="edgeStyle=orthogonalEdgeStyle;rounded=0;orthogonalLoop=1;jettySize=auto;html=1;entryX=0;entryY=0.5;entryDx=0;entryDy=0;entryPerimeter=0;" edge="1" parent="1" source="Jm16vt3uHQaVUnIaKJza-2" target="Jm16vt3uHQaVUnIaKJza-14">
          <mxGeometry relative="1" as="geometry" />
        </mxCell>
        <mxCell id="Jm16vt3uHQaVUnIaKJza-17" value="consume servicio&amp;nbsp;&lt;br&gt;monitor" style="edgeLabel;html=1;align=center;verticalAlign=middle;resizable=0;points=[];" vertex="1" connectable="0" parent="Jm16vt3uHQaVUnIaKJza-16">
          <mxGeometry x="0.2113" relative="1" as="geometry">
            <mxPoint x="-24" as="offset" />
          </mxGeometry>
        </mxCell>
      </root>
    </mxGraphModel>
  </diagram>
</mxfile>
